<?xml version="1.0" encoding="UTF-8"?><svg id="a" xmlns="http://www.w3.org/2000/svg" width="160.87mm" height="23.99mm" viewBox="0 0 456 68"><g id="b"><path d="m144.81,29.17H14.58c-3.61,0-6.91-1.31-9.46-3.49C1.99,23.01,0,19.02,0,14.58h0c0-3.75,1.41-7.17,3.73-9.75C6.4,1.87,10.28,0,14.58,0h130.23C148.84,0,152.48,1.63,155.12,4.27c2.64,2.64,4.27,6.28,4.27,10.31h0c0,3.43-1.19,6.59-3.17,9.08-2.67,3.36-6.79,5.5-11.41,5.5h0Z" style="fill:#fff;"/><path d="m112.79,15.69c.19-1.24,1.11-2.1,2.48-2.1s2.23.86,2.35,2.1h-4.84.01Zm-2.32.89c0,3.34,2.29,5.09,4.81,5.09,1.85,0,3.44-.76,4.33-2.32l-1.78-1.21c-.51,1.08-1.37,1.53-2.42,1.53-1.34,0-2.55-.89-2.61-2.26h6.91s.13-.41.13-1.08c0-2.61-1.66-4.81-4.55-4.81-3.28,0-4.81,2.74-4.81,5.06m-8.5.1c0-1.85.99-3.06,2.64-3.06,1.56,0,2.58,1.21,2.58,3.09,0,1.72-1.05,2.9-2.64,2.9s-2.58-1.18-2.58-2.93m-2.29,9.39h2.32v-5.38h.06c.93.67,1.91.99,2.9.99,2.42,0,4.65-1.88,4.65-5.09s-1.81-5.06-4.55-5.06c-1.21,0-2.26.48-2.99,1.21h-.06v-.93h-2.32v14.26h-.01Zm-12.35-14.26l4.81,9.27-2.29,5h2.48l6.59-14.26h-2.52l-3.06,6.68-3.44-6.68h-2.58,0Zm-11.71,9.61h2.32v-5.79h6.49v5.79h2.32V7.86h-2.32v5.57h-6.49v-5.57h-2.32v13.56h0Zm-8.34,0h2.2v-9.61h-2.2v9.61Zm-.29-12.35c0-.76.67-1.4,1.37-1.4.83,0,1.4.64,1.4,1.4s-.57,1.37-1.4,1.37c-.7,0-1.37-.64-1.37-1.37m-15.09,12.35v-9.61h2.2v1.18h.1c.54-.89,1.62-1.47,2.74-1.47,1.56,0,2.32.95,2.61,1.66h.1c.41-.7,1.43-1.66,3.21-1.66,2.16,0,3.18,1.69,3.18,3.85v6.05h-2.2v-5.63c0-1.15-.61-2.2-1.72-2.2-1.4,0-2.1,1.08-2.1,2.35v5.48h-2.16v-5.63c0-1.08-.51-2.2-1.69-2.2-1.3,0-2.07,1.05-2.07,2.35v5.48s-2.2,0-2.2,0Zm-7.96-4.71c0,1.56.57,3.12,2.32,3.12,1.66,0,2.39-1.49,2.39-3.12,0-1.98-.73-3.34-2.39-3.34-1.53,0-2.32,1.18-2.32,3.34m-2.23,0c0-3.6,2.26-5.19,4.55-5.19,2.64,0,4.55,1.85,4.55,5.19,0,2.83-1.69,4.97-4.55,4.97-2.61,0-4.55-1.98-4.55-4.97m-7.07,2.04c0,.8.76,1.08,1.53,1.08,1.3,0,2.32-.7,2.32-2.23v-.35h-.99c-1.24,0-2.86.25-2.86,1.49m-2.2.16c0-2.32,2.01-3.44,4.62-3.44h1.43v-.29c0-1.3-.99-1.81-1.98-1.81-.93,0-1.56.44-2.04,1.11l-1.53-1.11c1.02-1.34,2.07-1.85,3.72-1.85,2.23,0,3.95,1.34,3.95,3.66v6.24h-2.13v-.83h-.06c-.48.67-1.62,1.08-2.77,1.08-1.81,0-3.21-1.02-3.21-2.77m-3.63,2.52h2.2v-9.61h-2.2v9.61Zm-.29-12.35c0-.76.67-1.4,1.4-1.4.8,0,1.37.64,1.37,1.4s-.57,1.37-1.37,1.37c-.73,0-1.4-.64-1.4-1.37m-13.28,12.35h2.58l3.47-4.97,3.44,4.97h2.58l-4.74-6.81,4.71-6.75h-2.61l-3.37,4.87-3.4-4.87h-2.61l4.71,6.75-4.74,6.81h-.02Zm107.95-4.81v4.81h-2.29v-9.61h2.29v1.49h.06c.83-1.4,2.04-1.78,3.72-1.78h.38v2.26h-.38c-2.67,0-3.79.95-3.79,2.83"/><rect x="141.82" y="7.67" width="2.32" height="13.75"/><path d="m132.9,7.67l-5.13,13.75h2.53l1.03-2.92h5.48l1.02,2.92h2.55l-5.14-13.75h-2.35,0Zm-.8,8.64l1.98-5.62,1.97,5.62h-3.95Z"/><g id="c"><path d="m172.07,59.32v-3.84h6.07c1.5,0,2.66-.34,3.48-1s1.22-1.62,1.22-2.87-.41-2.21-1.22-2.89-1.98-1.02-3.48-1.02h-4.19v19.66h-4.16v-23.47h8.89c2.65,0,4.71.68,6.21,2.03,1.49,1.36,2.24,3.25,2.24,5.68s-.72,4.34-2.16,5.68c-1.45,1.36-3.44,2.03-6,2.03h-6.9Z" style="fill:#fff;"/><path d="m193.86,67.81c-1.06,0-2.01-.2-2.86-.61s-1.52-.97-2-1.72c-.49-.74-.73-1.62-.73-2.64,0-1.23.32-2.31.97-3.24s1.58-1.66,2.81-2.18,2.68-.78,4.35-.78h2.48v-.67c0-.91-.31-1.64-.94-2.19s-1.45-.83-2.46-.83c-.74,0-1.41.16-1.98.48-.58.32-1.09.78-1.51,1.4l-2.86-1.97c.78-1.13,1.72-1.96,2.83-2.52,1.1-.56,2.37-.84,3.82-.84s2.64.27,3.72.8,1.92,1.29,2.51,2.27c.6.99.89,2.14.89,3.48v11.31h-4.01v-2.19h-.19c-.42.83-1.07,1.47-1.94,1.94s-1.83.7-2.89.7h-.01Zm1.11-3.4c.64,0,1.25-.12,1.84-.37.6-.24,1.09-.61,1.48-1.1.4-.49.59-1.08.59-1.78v-1.11h-1.62c-1.63,0-2.85.22-3.67.65s-1.22,1.07-1.22,1.89c0,.55.24.99.71,1.32.47.33,1.11.49,1.89.49h0Z" style="fill:#fff;"/><path d="m222.2,67.37h-4.07v-2.22h-.16c-.51.85-1.18,1.5-2,1.97s-1.74.7-2.73.7c-1.45,0-2.72-.4-3.83-1.18s-1.98-1.88-2.59-3.29-.92-3.03-.92-4.88.3-3.34.91-4.7c.61-1.35,1.45-2.4,2.54-3.14s2.34-1.11,3.77-1.11c1,0,1.91.23,2.75.7s1.54,1.13,2.11,1.97h.16v-8.29h4.07v23.48h-.01Zm-3.94-8.7c0-1.06-.17-1.99-.51-2.79-.34-.81-.83-1.43-1.46-1.86-.64-.43-1.36-.65-2.16-.65s-1.52.22-2.14.65c-.63.43-1.11,1.06-1.46,1.86-.35.81-.52,1.73-.52,2.79s.18,1.98.54,2.78.86,1.42,1.49,1.86c.64.44,1.38.67,2.22.67.78,0,1.48-.22,2.08-.67.61-.44,1.08-1.07,1.42-1.86.34-.8.51-1.72.51-2.78h0Z" style="fill:#fff;"/><path d="m238.93,67.41l8.86-19.51h-10.36l-.03-4.01h15.38v2.79l-9.21,20.71h-4.64v.02Z" style="fill:#fff;"/><path d="m270.21,59.37v-3.84h6.07c1.5,0,2.66-.34,3.48-1s1.22-1.62,1.22-2.87-.41-2.21-1.22-2.89-1.98-1.02-3.48-1.02h-4.19v19.66h-4.16v-23.48h8.89c2.65,0,4.71.68,6.21,2.03,1.49,1.36,2.24,3.25,2.24,5.68s-.72,4.34-2.16,5.68c-1.45,1.36-3.44,2.03-6,2.03h-6.9s0,.02,0,.02Z" style="fill:#fff;"/><path d="m288.38,67.41v-17.41h4.04v3.21h.16c.64-1.17,1.49-2.06,2.57-2.7,1.08-.64,2.37-.95,3.88-.95h.19v4.07h-.29c-1.46,0-2.67.18-3.64.56-.96.37-1.68.91-2.16,1.62s-.71,1.54-.71,2.5v9.11h-4.04Z" style="fill:#fff;"/><path d="m308.62,67.85c-1.68,0-3.13-.38-4.37-1.13s-2.19-1.81-2.86-3.19-1-2.99-1-4.83.34-3.49,1-4.86,1.62-2.44,2.86-3.18,2.7-1.11,4.37-1.11,3.1.37,4.34,1.11,2.2,1.8,2.87,3.18,1.02,3,1.02,4.86-.34,3.46-1.02,4.84c-.68,1.39-1.63,2.45-2.87,3.19s-2.68,1.11-4.34,1.11h0Zm0-3.82c.85,0,1.57-.22,2.19-.65s1.09-1.06,1.42-1.86c.33-.81.49-1.74.49-2.83s-.16-2.02-.49-2.84-.8-1.44-1.42-1.86c-.62-.42-1.35-.64-2.19-.64s-1.58.21-2.19.64c-.62.42-1.09,1.04-1.43,1.86s-.51,1.76-.51,2.84.17,2.02.51,2.83.82,1.43,1.43,1.86c.62.43,1.35.65,2.19.65Z" style="fill:#fff;"/><path d="m87.37,43.62c-3.53,0-7.06.44-9.29,2.64-2.24,2.2-3.09,5.49-3.09,9.54s.77,7.28,3,9.48c2.23,2.2,5.86,2.72,9.37,2.72s7.04-.45,9.27-2.65,3.11-5.52,3.11-9.56-.78-7.26-3.01-9.46c-2.24-2.2-5.84-2.72-9.36-2.72h0Zm5.35,18.01c-1.24,1.42-3.49,1.67-5.35,1.67s-4.1-.25-5.35-1.67-1.33-3.37-1.33-5.83.08-4.36,1.32-5.78,3.24-1.67,5.35-1.67,4.1.24,5.35,1.67,1.32,3.32,1.32,5.78-.08,4.41-1.32,5.83h.01Zm-54.2-17.58h-4.99c-.21,0-.39.17-.39.38v22.77c0,.21.17.38.39.38h4.99c.21,0,.39-.17.39-.38v-22.77c0-.21-.17-.38-.39-.38h0Zm-20.98,11.57l8.87-10.98c.19-.24.02-.6-.28-.6h-6.39c-.15,0-.3.07-.39.19l-5.86,7.77-5.72-7.76c-.09-.12-.24-.19-.4-.19H.95c-.31,0-.48.35-.29.59l8.98,11.18L.65,66.99c-.18.24-.02.59.29.59h6.41c.15,0,.3-.08.4-.2l5.99-7.74,5.67,7.74c.09.13.24.19.4.19h6.33c.3,0,.47-.35.29-.59l-8.89-11.37h0Zm121.55-9.84c-2.03-1.89-5.29-2.12-7.94-2.12-3.41,0-5.59.73-6.91,1.41h-.92c-1.29-.71-3.56-1.41-7.13-1.41-2.64,0-5.88.19-7.88,1.87-1.65,1.39-2.04,3.24-2.04,7.02v14.63c0,.21.17.38.39.38h4.99c.21,0,.39-.17.39-.38v-12.05c0-2.18-.09-4.44.38-5.28.37-.66.94-1.39,3.65-1.39,3.24,0,3.99.23,4.5,1.66.12.34.18.82.21,1.41v15.66c0,.21.17.38.39.38h4.99c.21,0,.39-.17.39-.38v-15.65c.03-.59.09-1.07.21-1.41.51-1.43,1.27-1.66,4.5-1.66,2.71,0,3.29.73,3.65,1.39.47.84.38,3.11.38,5.28v12.05c0,.21.17.38.39.38h4.99c.21,0,.39-.17.39-.38v-13.75c0-3.93-.13-5.95-1.98-7.66h0,0,.01Zm-71.63,1.4c-2.3-3.18-6.47-4.14-10.8-3.91-4.38.24-7.44,1.17-8.22,1.46-.49.18-.42.6-.43.86-.02.84-.09,3.01-.08,3.89,0,.39.48.57.88.43,1.6-.57,4.55-1.47,6.93-1.66,2.56-.21,6.04,0,7,1.45.45.69.48,1.75.54,2.83-1.6-.14-3.97-.35-6.32-.22-1.83.1-5.34.25-7.41,1.35-1.68.9-2.67,1.71-3.19,3.22-.42,1.22-.54,2.68-.4,3.88.31,2.72,1.25,4.08,2.53,5.02,2.01,1.49,4.56,2.28,9.82,2.16,7-.15,8.84-2.42,9.77-4.02,1.58-2.74,1.3-7.05,1.26-9.7-.02-1.1-.18-4.71-1.87-7.04h-.01Zm-4.56,14.36c-.66,1.39-3.01,1.61-4.41,1.67-2.58.12-4.48.02-5.7-.6-.82-.4-1.41-1.33-1.46-2.37-.05-.89-.03-1.35.37-1.88.91-1.19,3.28-1.43,5.71-1.53,1.65-.06,4.16.12,6,.35-.02,1.78-.13,3.57-.5,4.36h0Zm91.48-17.49h-4.99c-.21,0-.39.17-.39.38v22.77c0,.21.17.38.39.38h4.99c.21,0,.39-.17.39-.38v-22.77c0-.21-.17-.38-.39-.38h0Z" style="fill:#fff;"/></g></g></svg>